<svg width="94" height="118" viewBox="0 0 94 118" fill="none" xmlns="http://www.w3.org/2000/svg">
<path d="M54.9509 62.91C54.2509 61.76 53.2608 61.08 52.1008 60.65C50.3708 60.01 48.6308 59.62 46.6708 59.72C45.1108 59.83 43.9308 59.82 42.5808 60.15C40.9808 60.53 40.5808 61.38 39.5708 62.25C39.4308 62.37 39.4308 62.82 39.5308 63.05C41.6108 67.96 41.0208 72.69 38.5208 77.25C37.8208 78.52 36.9708 79.73 36.0408 80.83C34.0508 83.18 31.4708 84.57 28.4108 84.86C26.6008 85.03 24.7508 85.04 22.9408 84.86C18.1908 84.41 14.9308 81.88 13.1708 77.43C12.1008 74.73 11.4108 71.96 11.3708 69.05C11.3508 67.93 11.3508 66.82 11.4008 65.7C11.4608 64.16 12.1508 62.82 12.8808 61.52C13.0508 61.22 13.4008 60.99 13.7108 60.79C16.3808 59.02 19.3608 58.03 22.5308 57.79C30.3808 57.19 38.2508 56.84 46.1308 57.01C49.3008 57.08 52.4708 57.32 55.6408 57.4C58.1008 57.46 60.5608 57.46 63.0208 57.34C67.3008 57.13 71.5509 57.3 75.7009 58.37C77.3109 58.78 78.8708 59.49 80.3308 60.29C81.7408 61.05 82.4108 62.51 82.8308 64.01C83.0708 64.87 83.2209 65.77 83.2309 66.66C83.3109 70.78 82.6208 74.76 80.7908 78.5C79.1808 81.78 76.5508 83.74 73.0208 84.5C70.5108 85.04 67.9508 85.07 65.4408 84.63C62.4808 84.12 60.0008 82.66 58.1108 80.25C56.0008 77.56 54.3808 74.65 53.9408 71.21C53.5708 68.36 53.7109 65.54 54.9509 62.91ZM59.9708 59.06C50.8808 58.52 41.8308 57.84 32.7508 58.59C33.8208 59.1 34.9408 59.47 35.9708 60.01C37.0108 60.56 37.9508 61.29 38.9908 61.98C39.1008 61.86 39.2608 61.71 39.4008 61.54C40.2208 60.49 41.3108 59.92 42.5908 59.64C44.8808 59.13 47.1909 59.02 49.4809 59.38C51.5509 59.71 53.5608 60.32 55.1008 61.9C55.1908 62 55.3408 62.04 55.5308 62.15C56.7008 60.66 58.3508 59.89 59.9708 59.05V59.06Z" fill="#ffffff"/>
<path d="M7.22086 0.609993L15.2509 26.8L10.7108 58.26L0.440857 40.27L7.22086 0.609993Z" fill="#ffffff"/>
<path d="M91.0508 1.07999L79.5709 27.46L84.8209 59.32L93.1808 39.95L91.0508 1.07999Z" fill="#ffffff"/>
<path d="M71.5609 25.55C77.5309 17.75 84.0609 9.01 90.0309 1.21C90.3109 0.839999 90.6208 0.489993 90.9308 0.109993C91.4508 0.389993 91.4609 0.769999 91.4809 1.14C91.6209 3.75 91.7609 6.35999 91.9109 8.96999C92.1709 13.44 92.4309 17.91 92.6909 22.38C92.8609 25.44 93.0209 28.49 93.1909 31.55C93.3309 33.97 93.4408 36.4 93.6208 38.82C93.6908 39.72 93.4008 40.46 93.0508 41.26C91.2108 45.51 89.4208 49.78 87.6108 54.04C86.9108 55.69 86.2209 57.34 85.5109 58.99C85.3609 59.34 85.1108 59.64 84.7708 60.17C83.9408 58.89 83.4208 57.71 82.8008 56.58C82.1808 55.43 81.5909 54.27 80.9809 53.11C80.3809 51.95 79.7508 50.8 79.1708 49.63C78.6108 48.5 77.9209 47.42 77.4709 46.15C78.2309 46.08 78.2708 46.54 78.4308 46.83C79.3108 48.48 80.1709 50.13 81.0409 51.79C82.2409 54.1 83.4409 56.42 84.6909 58.83C84.8109 58.65 84.9409 58.52 85.0009 58.37C86.9709 53.69 88.9208 49.01 90.8908 44.33C91.2208 43.54 91.4909 42.71 91.9109 41.97C92.8009 40.4 92.8508 38.72 92.7408 36.99C92.4808 33.08 92.2909 29.17 92.0609 25.25C91.8009 20.78 91.5209 16.31 91.2809 11.84C91.1009 8.6 90.9808 5.35999 90.8308 2.10999C90.8308 1.99999 90.7809 1.89999 90.7209 1.67999C90.5009 1.88999 90.3009 2.03 90.1609 2.21C86.6509 6.77 83.1408 11.32 79.6408 15.89C77.2108 19.06 74.8009 22.25 72.3509 25.41C71.9409 25.93 71.8309 26.43 71.9509 27.06C72.8709 31.94 73.7709 36.82 74.6909 41.7C74.7809 42.2 74.9209 42.7 75.0309 43.16C74.5909 43.61 74.3008 43.25 73.9908 43.08C72.1108 42.09 70.2409 41.07 68.3409 40.1C66.7409 39.29 65.1009 38.58 63.5009 37.76C62.9809 37.49 62.5508 37.47 62.0208 37.63C59.5508 38.37 57.0809 39.1 54.6009 39.79C53.8509 40 53.0708 40.16 52.3008 40.21C49.2008 40.42 46.1008 40.31 43.0208 40.01C42.1808 39.93 41.3708 39.56 40.5508 39.3C38.4208 38.62 36.2909 37.93 34.1609 37.23C33.6509 37.06 33.2108 37.07 32.6808 37.3C29.2308 38.82 25.8309 40.45 22.5309 42.27C22.1109 42.5 21.6709 42.96 21.1409 42.48C21.4009 39.94 21.6709 37.43 21.9109 34.91C22.1709 32.2 22.3709 29.48 22.6409 26.77C22.7209 25.98 22.5309 25.34 22.1109 24.67C17.4609 17.36 12.8309 10.03 8.19086 2.71999C7.94086 2.31999 7.65085 1.94 7.23085 1.34C6.95085 2.91 6.71084 4.21 6.49084 5.52C4.67084 16.42 2.88084 27.32 0.990844 38.21C0.720844 39.75 0.920855 40.97 1.72085 42.3C4.58085 47.08 7.32084 51.92 10.1008 56.74C10.3008 57.09 10.5209 57.43 10.7809 57.86C12.9909 53.91 15.1409 50.04 17.3109 46.18C17.5109 45.82 17.7809 45.49 18.0809 45.07C18.5109 45.68 18.1308 45.99 17.9608 46.31C16.7708 48.47 15.5609 50.62 14.3609 52.77C13.3909 54.5 12.4308 56.23 11.4608 57.95C11.2808 58.26 11.0709 58.56 10.7809 59C10.4909 58.62 10.2709 58.39 10.1109 58.12C6.85085 52.5 3.59085 46.88 0.320846 41.26C0.0208457 40.74 -0.059153 40.24 0.040847 39.66C1.61085 30.31 3.17084 20.96 4.74084 11.61C5.33084 8.07999 5.92085 4.53999 6.53085 1.00999C6.59085 0.659995 6.74084 0.33 6.85084 0C7.47084 0.07 7.58085 0.529998 7.79085 0.849998C10.2208 4.66 12.6309 8.48 15.0509 12.3C17.5909 16.31 20.1309 20.31 22.6709 24.32C24.0509 26.88 24.3809 27.32 25.0309 28.92C26.1809 31.75 27.2809 34.61 28.4109 37.46C28.5009 37.7 28.6209 37.93 28.7709 38.29C30.1609 37.7 31.4909 37.19 32.7509 36.56C33.2109 36.33 33.5608 36.34 34.0108 36.49C36.7008 37.37 39.4008 38.26 42.1108 39.1C42.7408 39.3 43.4208 39.37 44.0808 39.43C46.8408 39.68 49.6008 39.73 52.3608 39.54C52.9108 39.5 53.4709 39.44 54.0109 39.29C56.7409 38.53 59.4709 37.74 62.1909 36.94C62.6809 36.79 63.0608 36.81 63.5508 37.07C64.8908 37.78 66.6609 38.56 68.1609 39.25C68.4509 38 68.8109 36.73 69.0709 35.58C69.7509 32.56 70.5709 29.58 71.2609 26.56" fill="#ffffff"/>
<path d="M56.4109 84.56C53.7709 86.61 51.2609 88.61 48.6909 90.54C47.9109 91.12 47.6409 91.75 47.6509 92.71C47.6809 94.61 47.5809 96.52 47.5309 98.42C47.5109 99.07 47.5709 99.62 48.1009 100.13C53.0509 104.85 57.9709 109.59 62.9109 114.33C63.0409 114.46 63.2009 114.56 63.3909 114.71C66.7909 112.74 70.1809 110.79 73.5609 108.84C73.5609 107.59 69.4009 89.18 68.8909 88.27C64.5709 88.23 60.7109 86.91 57.6909 83.61C56.1309 81.91 55.5009 80.82 55.5009 80C56.0209 79.91 56.0909 80.37 56.2609 80.66C57.5109 82.7 59.1009 84.39 61.1309 85.68C63.3909 87.12 65.8909 87.55 68.5009 87.63C68.8009 87.63 69.1009 87.63 69.4009 87.63C69.4709 87.63 69.5409 87.68 69.6509 87.72C69.7209 87.9 69.8409 88.09 69.8809 88.31C71.3109 94.8 72.7409 101.28 74.1709 107.77C74.4109 108.87 74.2809 109.18 73.2909 109.76C70.2909 111.51 67.2809 113.25 64.2809 114.98C63.3309 115.53 63.3309 115.52 62.4409 114.81C62.3609 114.74 62.2509 114.71 62.0709 114.62C61.2109 115.47 60.3209 116.32 59.4709 117.2C59.0309 117.67 58.5809 117.89 57.9109 117.85C57.1009 117.8 56.2709 117.89 55.4609 117.96C54.8309 118.01 54.3009 117.86 53.7809 117.49C52.5109 116.56 51.2109 115.68 49.9609 114.75C49.4309 114.35 48.8709 114.14 48.2109 114.13C47.9109 114.13 47.6109 114.09 47.3209 114.07C45.8809 113.97 44.5409 114.14 43.3409 115.11C42.3309 115.93 41.1809 116.58 40.1009 117.31C39.6509 117.61 39.2209 117.75 38.6409 117.67C37.7209 117.54 36.7809 117.5 35.8509 117.54C35.2909 117.56 34.9409 117.36 34.6009 116.98C33.8409 116.15 33.0709 115.34 32.3009 114.53C32.1809 114.4 32.0209 114.31 31.8109 114.15C31.0009 115.22 30.2109 114.83 29.3109 114.25C26.5809 112.5 23.8109 110.79 21.0309 109.11C20.1009 108.54 19.7409 108.01 20.0709 106.71C21.6109 100.79 23.0909 94.85 24.5909 88.91C24.7509 88.27 24.9009 87.62 25.0309 87.08C26.5809 86.96 27.9909 86.89 29.3909 86.73C30.8109 86.57 32.2109 86.24 33.4109 85.44C34.5809 84.65 35.7409 83.82 36.7909 82.88C37.8109 81.97 38.4609 80.7 39.2809 79.59C39.3709 79.65 39.4709 79.71 39.5609 79.77C39.5309 79.96 39.5409 80.19 39.4509 80.35C37.2909 83.88 34.3809 86.41 30.1909 87.16C28.7309 87.42 27.2509 87.57 25.5709 87.79C23.8509 94.41 22.1709 101.16 20.4609 107.95C23.8709 110.07 27.2009 112.13 30.6009 114.24C31.2009 113.71 31.7909 113.21 32.3709 112.69C36.9709 108.53 41.5609 104.36 46.1709 100.21C46.6109 99.82 46.8909 99.42 46.8909 98.78C46.8809 96.73 46.8809 94.67 46.9609 92.62C47.0009 91.72 46.6409 91.19 45.9609 90.67C43.3409 88.69 40.7709 86.65 38.1509 84.61C38.4709 83.77 38.7609 82.93 39.1309 82.12C39.2309 81.9 39.5609 81.69 39.8109 81.65C42.2409 81.25 44.6709 80.82 47.1209 80.56C48.1009 80.46 49.1209 80.72 50.1209 80.87C51.5609 81.09 52.9909 81.37 54.4309 81.58C55.0609 81.67 55.4109 81.96 55.6109 82.57C55.8309 83.24 56.1509 83.87 56.4409 84.56H56.4109ZM39.7109 106.92C37.2409 109.15 34.8009 111.36 32.3009 113.63C33.2809 114.66 34.1309 115.6 35.0409 116.49C35.2509 116.7 35.6209 116.82 35.9309 116.85C36.8609 116.95 37.7909 117.01 38.7209 117.02C39.0609 117.02 39.4509 116.89 39.7509 116.71C40.7609 116.08 41.8209 115.48 42.7309 114.72C44.0909 113.59 45.6009 113.22 47.3109 113.4C47.8309 113.46 48.3609 113.46 48.8709 113.56C49.2609 113.64 49.6609 113.77 49.9809 113.99C51.3409 114.92 52.6709 115.87 53.9909 116.85C54.4709 117.21 54.9809 117.33 55.5609 117.3C56.3409 117.25 57.1309 117.25 57.9109 117.18C58.2209 117.15 58.6109 117.09 58.8309 116.9C59.8009 116.03 60.7209 115.12 61.7509 114.13C59.2509 111.73 56.8609 109.44 54.3509 107.03C53.8709 108.38 52.8809 108.36 51.8909 108.32C51.6309 108.31 51.3709 108.29 51.1109 108.29C49.0609 108.25 47.0109 108.2 44.9609 108.17C43.9109 108.15 42.8709 108.15 41.8209 108.17C41.0909 108.19 40.4909 108.03 40.1309 107.33C40.0709 107.21 39.9309 107.12 39.7509 106.92H39.7109ZM53.6609 106.38C51.4109 104.22 49.3309 102.22 47.1809 100.16C44.9609 102.17 42.8209 104.11 40.6809 106.04C41.1809 106.61 41.1809 106.62 41.6309 106.64C42.3009 106.66 42.9709 106.67 43.6409 106.69C46.6209 106.74 49.5909 106.81 52.5709 106.84C52.8709 106.84 53.1809 106.6 53.6609 106.39V106.38Z" fill="#ffffff"/>
</svg>
