<?xml version="1.0" encoding="UTF-8"?>
<svg version="1.1" xmlns="http://www.w3.org/2000/svg" width="500" height="500">
<path d="M0 0 C0.84961807 -0.00845947 1.69923615 -0.01691895 2.57460022 -0.02563477 C3.50352585 -0.01956207 4.43245148 -0.01348938 5.38952637 -0.00723267 C6.3702562 -0.01248962 7.35098602 -0.01774658 8.36143494 -0.02316284 C11.60989207 -0.03638877 14.85786095 -0.02761541 18.10632324 -0.01748657 C20.35929458 -0.01950656 22.61226528 -0.02241736 24.86523438 -0.02618408 C29.58970355 -0.03061096 34.31400271 -0.02416457 39.03845215 -0.01016235 C45.10171288 0.00692958 51.16457525 -0.00290964 57.22782135 -0.02087975 C61.8808697 -0.03170768 66.53382322 -0.02827577 71.18687439 -0.02049637 C73.42284695 -0.01849162 75.65882806 -0.0209632 77.89479065 -0.02793503 C81.01696661 -0.03553308 84.1384927 -0.02396805 87.26062012 -0.00723267 C88.65400856 -0.01634171 88.65400856 -0.01634171 90.07554626 -0.02563477 C91.34997337 -0.01294556 91.34997337 -0.01294556 92.65014648 0 C93.38829338 0.00113108 94.12644028 0.00226215 94.88695526 0.00342751 C97.44437235 0.50158338 98.2142091 1.35252283 99.82507324 3.38095093 C100.2022714 5.50583977 100.2022714 5.50583977 100.20538998 8.01808071 C100.21382992 8.97603745 100.22226986 9.93399419 100.23096555 10.92097992 C100.22495551 11.97563275 100.21894546 13.03028558 100.2127533 14.11689758 C100.2208316 15.79484912 100.2208316 15.79484912 100.22907311 17.50669867 C100.24344045 21.27470742 100.23622722 25.0423692 100.22912598 28.81039429 C100.23482496 31.5038312 100.24168613 34.19724275 100.24992371 36.89067078 C100.26714355 43.45894959 100.26794514 50.02713287 100.2627108 56.5954284 C100.25867372 61.93286163 100.26010715 67.27026657 100.26545906 72.60769844 C100.26620748 73.36658606 100.2669559 74.12547368 100.26772701 74.90735789 C100.26925844 76.44890837 100.27079679 77.99045884 100.27234197 79.53200931 C100.28607858 93.99728079 100.28062123 108.46249822 100.26915676 122.92776848 C100.25922348 136.16837543 100.2721646 149.40884266 100.29609095 162.64942806 C100.32045949 176.23682603 100.33009535 189.82415885 100.32343823 203.41157824 C100.31994095 211.04310802 100.32221143 218.67453032 100.33968925 226.30604362 C100.35438324 232.80276064 100.35508365 239.29929449 100.33761834 245.7960078 C100.32908249 249.11201927 100.32917367 252.4276343 100.3422699 255.7436409 C100.35537566 259.335414 100.34402389 262.92628713 100.32627869 266.51802063 C100.33588369 267.57044274 100.3454887 268.62286485 100.35538477 269.70717853 C100.28509737 276.58649184 100.28509737 276.58649184 98.29072666 280.03075886 C94.83910156 281.92086912 91.70740567 281.91406258 87.87341309 281.84695435 C87.06535406 281.84872264 86.25729504 281.85049093 85.42474937 281.8523128 C82.7114339 281.85330783 79.99917478 281.82556258 77.28601074 281.79794312 C75.3421873 281.79265971 73.39835847 281.78911448 71.45452881 281.78717804 C66.15050437 281.77669562 60.84690871 281.74102671 55.54303741 281.70079136 C49.90972751 281.66209175 44.27634762 281.64565614 38.64294434 281.62625122 C27.94849531 281.58560077 17.2542914 281.52297568 6.56001091 281.45108008 C-1.5540809 281.39679655 -9.66817598 281.35026298 -17.78234863 281.30990601 C-41.98885504 281.18834798 -66.19464032 281.02697595 -90.40045166 280.80582428 C-102.72108779 280.69346339 -115.04166796 280.59525371 -127.36255455 280.51466489 C-136.26151442 280.45537207 -145.16027123 280.3811075 -154.05901527 280.29537082 C-159.29578263 280.24528492 -164.5324082 280.20156289 -169.76934814 280.174263 C-174.6036878 280.14876025 -179.43749728 280.10481 -184.27154541 280.04618454 C-186.03725504 280.02801946 -187.80304941 280.01664932 -189.56884766 280.01252365 C-191.97118575 280.00589796 -194.37201601 279.97502069 -196.77404785 279.93789673 C-197.82153733 279.94370093 -197.82153733 279.94370093 -198.89018822 279.94962239 C-202.17875443 279.87325604 -203.93563993 279.55824151 -206.60699749 277.57899952 C-208.96671663 274.27095659 -208.70870557 270.99042967 -208.64489746 267.07992554 C-208.64708786 266.24535324 -208.64927826 265.41078094 -208.65153503 264.55091858 C-208.65384496 261.79463967 -208.62759811 259.03943103 -208.60070801 256.28329468 C-208.59578428 254.3680607 -208.59248529 252.45282191 -208.59074402 250.5375824 C-208.58310414 246.52517309 -208.56254299 242.51312051 -208.53161621 238.50082397 C-208.4920148 233.35355671 -208.47400298 228.20652146 -208.46430683 223.05911922 C-208.45433983 218.15464618 -208.43444813 213.25022995 -208.41320801 208.34579468 C-208.40981226 207.40758314 -208.40641651 206.4693716 -208.40291786 205.50272942 C-208.39135693 202.85261125 -208.37283846 200.20264069 -208.35192871 197.55258179 C-208.34923981 196.76548828 -208.3465509 195.97839478 -208.34378052 195.16744995 C-208.31217969 191.97896825 -208.19054446 189.42780403 -207.17492676 186.38095093 C-203.74790695 184.66744102 -199.81392873 185.2523611 -196.0435791 185.26742554 C-195.0971907 185.26727951 -194.15080231 185.26713348 -193.17573547 185.26698303 C-190.03742201 185.26768151 -186.89916739 185.27547091 -183.76086426 185.28329468 C-181.58895907 185.28515909 -179.41705346 185.28658288 -177.24514771 185.2875824 C-171.52078089 185.29140577 -165.79643933 185.30123453 -160.07208252 185.31228638 C-154.23397158 185.32250436 -148.39585656 185.32708085 -142.55773926 185.3321228 C-131.09679064 185.34285694 -119.6358608 185.35993122 -108.17492676 185.38095093 C-108.17936798 184.3750592 -108.1838092 183.36916748 -108.18838501 182.33279419 C-108.22891456 172.85685724 -108.25890322 163.38093786 -108.2785511 153.90493393 C-108.2889918 149.03313334 -108.30315628 144.16140268 -108.32580566 139.28964233 C-108.34752376 134.58882204 -108.35949323 129.88806904 -108.36468124 125.18720245 C-108.36837885 123.39303783 -108.37559927 121.59887691 -108.38638687 119.80474091 C-108.40088804 117.29327918 -108.40290528 114.78209617 -108.40197754 112.27059937 C-108.40916809 111.52757065 -108.41635864 110.78454193 -108.42376709 110.01899719 C-108.40904245 106.33937344 -108.3431686 103.44433192 -106.17492676 100.38095093 C-102.74790695 98.66744102 -98.81392873 99.2523611 -95.0435791 99.26742554 C-94.0971907 99.26727951 -93.15080231 99.26713348 -92.17573547 99.26698303 C-89.03742201 99.26768151 -85.89916739 99.27547091 -82.76086426 99.28329468 C-80.58895907 99.28515909 -78.41705346 99.28658288 -76.24514771 99.2875824 C-70.52078089 99.29140577 -64.79643933 99.30123453 -59.07208252 99.31228638 C-53.23397158 99.32250436 -47.39585656 99.32708085 -41.55773926 99.3321228 C-30.09679064 99.34285694 -18.6358608 99.35993122 -7.17492676 99.38095093 C-7.18491951 97.58690071 -7.18491951 97.58690071 -7.19511414 95.75660706 C-7.25585921 84.49971929 -7.30086763 73.24286465 -7.33036327 61.98585033 C-7.34603691 56.19812898 -7.36730626 50.41053965 -7.40124512 44.62289429 C-7.43377786 39.04026805 -7.45176697 33.45776901 -7.45955849 27.87505531 C-7.46511294 25.74233306 -7.47595905 23.60961797 -7.49211693 21.47694969 C-7.51381017 18.49582096 -7.51689707 15.51522172 -7.51550293 12.5340271 C-7.52628876 11.64714203 -7.53707458 10.76025696 -7.54818726 9.84649658 C-7.54406326 9.0346138 -7.53993927 8.22273102 -7.53569031 7.38624573 C-7.53845569 6.68107409 -7.54122107 5.97590246 -7.54407024 5.24936199 C-6.70361396 0.99541229 -4.00345443 0.00613457 0 0 Z " fill="#1D783F" transform="translate(307.1749267578125,105.61904907226563)"/>
<path d="M0 0 C32.67 0 65.34 0 99 0 C99.0220261 34.63417136 99.04049768 69.26833594 99.05106533 103.90251219 C99.05231611 107.98701009 99.05361042 112.07150798 99.05493164 116.15600586 C99.05519395 116.96919077 99.05545626 117.78237567 99.05572652 118.62020255 C99.06008343 131.80477673 99.0679711 144.98934658 99.0771528 158.17391818 C99.08648875 171.69226108 99.09205549 185.2106017 99.09408849 198.7289477 C99.09546384 207.07731829 99.09981508 215.42567663 99.10791647 223.77404345 C99.11318321 229.49092429 99.11480446 235.20779874 99.11350138 240.92468183 C99.11285788 244.22802503 99.11441521 247.53134204 99.11920547 250.83468246 C99.12413533 254.40766372 99.12300092 257.98059127 99.12025452 261.55357361 C99.12316736 262.6089987 99.1260802 263.6644238 99.12908131 264.75183147 C99.12709026 265.70130612 99.12509921 266.65078076 99.12304783 267.62902737 C99.12342755 268.45491908 99.12380727 269.2808108 99.1241985 270.13172954 C99 272 99 272 98 273 C94.99186514 273.10062747 92.00664971 273.1361474 88.99804688 273.12939453 C88.0534108 273.13114685 87.10877472 273.13289917 86.13551331 273.13470459 C82.9965738 273.1391248 79.85769013 273.13618452 76.71875 273.1328125 C74.54781076 273.13348549 72.3768716 273.13445547 70.20593262 273.13571167 C65.64948817 273.13718887 61.09306328 273.13503337 56.53662109 273.13037109 C50.68173414 273.1246738 44.82689302 273.12795268 38.97200775 273.13394356 C34.48719942 273.13754857 30.00240204 273.13641086 25.51759338 273.13381577 C23.35811864 273.13314633 21.19864291 273.1339755 19.03916931 273.13629532 C16.02673692 273.13882086 13.01437987 273.13498264 10.00195312 273.12939453 C8.64917015 273.13243088 8.64917015 273.13243088 7.26905823 273.13552856 C1.11426231 273.11426231 1.11426231 273.11426231 0 272 C-0.09668251 270.54564199 -0.12371797 269.0865953 -0.12304783 267.62902737 C-0.12503888 266.67955272 -0.12702993 265.73007808 -0.12908131 264.75183147 C-0.12616847 263.69640638 -0.12325563 262.64098128 -0.12025452 261.55357361 C-0.12110894 260.44199294 -0.12196337 259.33041227 -0.12284368 258.18514735 C-0.12450174 254.4293238 -0.1189718 250.6735441 -0.11352539 246.91772461 C-0.11324356 244.2378072 -0.11335705 241.55789254 -0.1139679 238.87797546 C-0.11449332 233.09230526 -0.11134456 227.3066463 -0.10573006 221.52097893 C-0.0976176 213.15578183 -0.0950001 204.7905902 -0.09374207 196.4253896 C-0.09155114 182.85479766 -0.08488997 169.28421172 -0.07543945 155.71362305 C-0.06626637 142.52775096 -0.05918503 129.34188049 -0.05493164 116.15600586 C-0.05466892 115.34380579 -0.05440619 114.53160571 -0.05413551 113.69479351 C-0.05283051 109.62039678 -0.05156679 105.54600003 -0.05032361 101.47160327 C-0.03994974 67.6477302 -0.02151077 33.82386828 0 0 Z " fill="#207B42" transform="translate(301,107)"/>
<path d="M0 0 C12.7603387 -0.02312121 25.52067245 -0.04091395 38.28102779 -0.05181217 C44.20550715 -0.05704149 50.12997222 -0.06414001 56.05444336 -0.07543945 C61.76672571 -0.08626661 67.47899428 -0.09227647 73.19128609 -0.09487724 C75.37588277 -0.0967318 77.56047865 -0.100353 79.7450695 -0.10573006 C82.79352349 -0.11293821 85.84191979 -0.11399104 88.89038086 -0.11352539 C89.80315796 -0.11712067 90.71593506 -0.12071594 91.65637207 -0.12442017 C97.88594784 -0.11405216 97.88594784 -0.11405216 99 1 C99.09509559 3.61688441 99.12556 6.207289 99.11352539 8.82446289 C99.11367142 9.64390884 99.11381744 10.4633548 99.1139679 11.30763245 C99.11326852 14.02933353 99.10547501 16.75096705 99.09765625 19.47265625 C99.09579216 21.35452741 99.09436821 23.23639906 99.09336853 25.11827087 C99.08954267 30.08148529 99.07971181 35.04467064 99.06866455 40.00787354 C99.0584519 45.06839606 99.05387122 50.12892327 99.04882812 55.18945312 C99.0380896 65.12631488 99.02101236 75.06315503 99 85 C86.23972168 85.15356395 73.47939349 85.30174573 60.71897221 85.4429636 C54.79446542 85.50870045 48.86999247 85.57632526 42.94555664 85.64819336 C37.23331908 85.71741905 31.52104592 85.7817788 25.80871391 85.84269524 C23.62409902 85.86686072 21.43950314 85.8928107 19.2549305 85.92053413 C16.20652368 85.95892192 13.15811228 85.99109185 10.10961914 86.02172852 C9.19684204 86.03467453 8.28406494 86.04762054 7.34362793 86.06095886 C5.22906446 86.07898082 3.11415506 86.04529762 1 86 C-0.7772169 84.2227831 -0.11988099 81.847528 -0.12442017 79.48136902 C-0.12082489 78.69015152 -0.11722961 77.89893402 -0.11352539 77.08374023 C-0.11367142 76.25454071 -0.11381744 75.42534119 -0.1139679 74.5710144 C-0.11326851 71.81684802 -0.10547493 69.06274839 -0.09765625 66.30859375 C-0.09579216 64.40430234 -0.09436822 62.50001045 -0.09336853 60.59571838 C-0.08954263 55.57332037 -0.07971173 50.55095108 -0.06866455 45.52856445 C-0.05845198 40.4077188 -0.05387124 35.28686852 -0.04882812 30.16601562 C-0.03808953 20.11066443 -0.02101224 10.0553346 0 0 Z " fill="#237E45" transform="translate(100,292)"/>
<path d="M0 0 C13.11691838 -0.06942445 26.23379325 -0.12277285 39.35085773 -0.15543652 C45.44124643 -0.1711112 51.53150968 -0.19238249 57.62182617 -0.22631836 C63.49622523 -0.25884731 69.37050343 -0.27683942 75.24498558 -0.28463173 C77.48935029 -0.29018686 79.73370818 -0.30103426 81.97802162 -0.31719017 C85.11480782 -0.3388783 88.25109069 -0.34197051 91.38793945 -0.34057617 C92.32157822 -0.351362 93.25521698 -0.36214783 94.21714783 -0.3732605 C95.07110138 -0.36913651 95.92505493 -0.36501251 96.80488586 -0.36076355 C97.54692922 -0.36352893 98.28897257 -0.36629431 99.05350208 -0.36914349 C101.62165425 0.11789359 102.38496157 0.96495262 104 3 C104.37719816 5.12488884 104.37719816 5.12488884 104.38031673 7.63712978 C104.38875668 8.59508652 104.39719662 9.55304326 104.40589231 10.54002899 C104.39988227 11.59468182 104.39387222 12.64933465 104.38768005 13.73594666 C104.39575836 15.41389819 104.39575836 15.41389819 104.40399987 17.12574774 C104.41836721 20.89375649 104.41115398 24.66141827 104.40405273 28.42944336 C104.40975171 31.12288028 104.41661289 33.81629182 104.42485046 36.50971985 C104.4420703 43.07799866 104.44287189 49.64618194 104.43763756 56.21447747 C104.43360048 61.5519107 104.43503391 66.88931564 104.44038582 72.22674751 C104.44113424 72.98563513 104.44188266 73.74452275 104.44265376 74.52640696 C104.4441852 76.06795744 104.44572355 77.60950792 104.44726873 79.15105838 C104.46100533 93.61632986 104.45554799 108.0815473 104.44408352 122.54681755 C104.43415023 135.7874245 104.44709136 149.02789173 104.47101771 162.26847713 C104.49538625 175.8558751 104.50502211 189.44320792 104.49836498 203.03062731 C104.49486771 210.6621571 104.49713818 218.29357939 104.51461601 225.9250927 C104.52931 232.42180971 104.53001041 238.91834356 104.5125451 245.41505688 C104.50400925 248.73106834 104.50410043 252.04668337 104.51719666 255.36268997 C104.53030242 258.95446308 104.51895065 262.54533621 104.50120544 266.1370697 C104.51081045 267.18949181 104.52041546 268.24191392 104.53031152 269.32622761 C104.46002413 276.20554092 104.46002413 276.20554092 102.46565342 279.64980793 C99.01402832 281.5399182 95.88233243 281.53311165 92.04833984 281.46600342 C91.24028082 281.46777171 90.43222179 281.46954 89.59967613 281.47136188 C86.88636065 281.47235691 84.17410154 281.44461165 81.4609375 281.41699219 C79.51711406 281.41170878 77.57328523 281.40816355 75.62945557 281.40622711 C70.32543112 281.39574469 65.02183547 281.36007578 59.71796417 281.31984043 C54.08465427 281.28114083 48.45127438 281.26470521 42.81787109 281.24530029 C32.12342207 281.20464984 21.42921815 281.14202475 10.73493767 281.07012916 C2.62084586 281.01584562 -5.49324922 280.96931205 -13.60742188 280.92895508 C-37.81392828 280.80739705 -62.01971356 280.64602502 -86.2255249 280.42487335 C-98.54616103 280.31251246 -110.86674121 280.21430279 -123.18762779 280.13371396 C-132.08658766 280.07442114 -140.98534447 280.00015657 -149.88408852 279.91441989 C-155.12085587 279.86433399 -160.35748144 279.82061196 -165.59442139 279.79331207 C-170.42876104 279.76780932 -175.26257053 279.72385907 -180.09661865 279.66523361 C-181.86232828 279.64706853 -183.62812265 279.6356984 -185.3939209 279.63157272 C-187.796259 279.62494703 -190.19708926 279.59406976 -192.59912109 279.5569458 C-193.64661057 279.56275 -193.64661057 279.56275 -194.71526146 279.56867146 C-198.00306033 279.49232294 -199.761002 279.17692201 -202.4324913 277.1993103 C-204.79945306 273.87831861 -204.52554972 270.57516188 -204.45410156 266.65136719 C-204.45468567 265.81197601 -204.45526978 264.97258484 -204.45587158 264.10775757 C-204.45308786 261.33704071 -204.42198277 258.56740359 -204.390625 255.796875 C-204.38316362 253.87445666 -204.3774702 251.95203071 -204.37347412 250.02960205 C-204.35820967 244.9725236 -204.31892075 239.9159055 -204.2746582 234.85900879 C-204.23372306 229.69773587 -204.21546685 224.5363885 -204.1953125 219.375 C-204.15242739 209.24979787 -204.08416613 199.12493723 -204 189 C-203.67 189 -203.34 189 -203 189 C-202.67 216.06 -202.34 243.12 -202 271 C-169.66 271 -137.32 271 -104 271 C-104.33 243.28 -104.66 215.56 -105 187 C-136.68 186.67 -168.36 186.34 -201 186 C-201 185.67 -201 185.34 -201 185 C-168.99 185 -136.98 185 -104 185 C-104.07920978 158.43282097 -104.07920978 158.43282097 -104.18017578 131.86572266 C-104.18920898 126.7331543 -104.18920898 126.7331543 -104.19088745 124.3321228 C-104.19396323 122.6513666 -104.20100683 120.97061488 -104.21115112 119.28988647 C-104.22573272 116.74737859 -104.22781396 114.20514092 -104.22705078 111.66259766 C-104.234247 110.91095652 -104.24144321 110.15931538 -104.2488575 109.38489723 C-104.22805267 104.22805267 -104.22805267 104.22805267 -102 102 C-102 158.43 -102 214.86 -102 273 C-69.66 273 -37.32 273 -4 273 C-4 215.91 -4 158.82 -4 100 C-35.68 100 -67.36 100 -100 100 C-100 99.67 -100 99.34 -100 99 C-67.99 99 -35.98 99 -3 99 C-3 67.32 -3 35.64 -3 3 C-2.67 3 -2.34 3 -2 3 C-1.67 92.1 -1.34 181.2 -1 273 C31.01 273 63.02 273 96 273 C96.33 183.24 96.66 93.48 97 1 C64.99 1 32.98 1 0 1 C0 0.67 0 0.34 0 0 Z " fill="#000000" transform="translate(303,106)"/>
<path d="M0 0 C0.33 0 0.66 0 1 0 C1.28440785 21.44416551 1.56283456 42.88840121 1.83411503 64.33273697 C1.96021131 74.28940948 2.08827454 84.24604948 2.22094727 94.20263672 C2.33656183 102.87944646 2.44850731 111.5562944 2.55602258 120.23320842 C2.61309472 124.82876374 2.67202053 129.42427863 2.73533821 134.0197525 C2.79485493 138.34356386 2.8494722 142.6674092 2.90030479 146.9913311 C2.91984609 148.57965617 2.9411894 150.16796023 2.96445465 151.75623512 C2.99591787 153.92244408 3.02093423 156.0886349 3.04432678 158.25494385 C3.05999726 159.46802341 3.07566774 160.68110298 3.09181309 161.93094254 C3.01486715 164.5030323 2.76798024 166.56207961 2 169 C2.85464844 168.98839844 3.70929688 168.97679687 4.58984375 168.96484375 C5.69457031 168.95582031 6.79929687 168.94679688 7.9375 168.9375 C9.03964844 168.92589844 10.14179688 168.91429687 11.27734375 168.90234375 C14 169 14 169 15 170 C17.58549772 170.12505085 20.14561411 170.186048 22.73266602 170.20532227 C23.5423584 170.21522186 24.35205078 170.22512146 25.1862793 170.23532104 C27.87545805 170.26702987 30.5646545 170.29173035 33.25390625 170.31640625 C35.11336234 170.33696769 36.97281368 170.35796394 38.83226013 170.37937927 C43.73623815 170.43468366 48.64025893 170.4840559 53.54431152 170.53222656 C58.54455388 170.58238066 63.54473382 170.63809845 68.54492188 170.69335938 C78.36322799 170.80104321 88.18158819 170.90246532 98 171 C98 171.33 98 171.66 98 172 C85.37004515 172.02312132 72.7400953 172.04091401 60.11012363 172.05181217 C54.24617836 172.05704146 48.38224751 172.06413994 42.51831055 172.07543945 C36.86438288 172.0862667 31.21046913 172.09227649 25.55653191 172.09487724 C23.3942639 172.09673179 21.23199669 172.10035295 19.06973457 172.10573006 C16.05241343 172.11293833 13.03515057 172.11399103 10.01782227 172.11352539 C8.66268272 172.1189183 8.66268272 172.1189183 7.28016663 172.12442017 C1.11405216 172.11405216 1.11405216 172.11405216 0 171 C-0.0970006 168.79774546 -0.12186709 166.59231336 -0.12025452 164.38792419 C-0.12110894 163.68878232 -0.12196337 162.98964044 -0.12284368 162.26931244 C-0.12450051 159.90925249 -0.11897384 157.54926247 -0.11352539 155.18920898 C-0.11324354 153.50435386 -0.11340122 151.81949861 -0.1139679 150.13464355 C-0.11425594 145.54599547 -0.10835811 140.9573733 -0.10139394 136.36873126 C-0.09516153 131.57875368 -0.09455669 126.78877557 -0.09336853 121.99879456 C-0.09025488 112.92170968 -0.08204104 103.84463679 -0.07201904 94.7675572 C-0.06085895 84.43641419 -0.05534772 74.10527061 -0.05032361 63.77412307 C-0.03985845 42.51607535 -0.02225836 21.25803843 0 0 Z " fill="#274833" transform="translate(301,208)"/>
<path d="M0 0 C0.33 0 0.66 0 1 0 C1.74001676 10.5245861 2.18252654 21.00960025 2.31640625 31.5625 C2.3370646 32.9745329 2.35806271 34.38656087 2.37937927 35.79858398 C2.43368613 39.45454826 2.48348471 43.11055943 2.53222656 46.76660156 C2.58312408 50.5215251 2.63844796 54.2763834 2.69335938 58.03125 C2.799817 65.35411091 2.90149481 72.67702733 3 80 C12.83944237 81.25107842 22.66770378 81.22536023 32.5703125 81.31640625 C34.46174539 81.3370102 36.35317402 81.3580075 38.24459839 81.37937927 C43.19283583 81.43424492 48.14111233 81.48380891 53.0894165 81.53222656 C58.15079168 81.58270293 63.212111 81.63825177 68.2734375 81.69335938 C78.1822438 81.80050581 88.09109887 81.9020451 98 82 C98 82.33 98 82.66 98 83 C65.66 83 33.32 83 0 83 C0 55.61 0 28.22 0 0 Z " fill="#1F482F" transform="translate(201,296)"/>
<path d="M0 0 C13.53 0 27.06 0 41 0 C41 27.72 41 55.44 41 84 C40.67 84 40.34 84 40 84 C39.01 43.905 39.01 43.905 38 3 C28.56534709 2.19078288 28.56534709 2.19078288 19.140625 1.68359375 C18.00625 1.64169922 16.871875 1.59980469 15.703125 1.55664062 C14.56359375 1.51732422 13.4240625 1.47800781 12.25 1.4375 C11.0640625 1.39431641 9.878125 1.35113281 8.65625 1.30664062 C5.77091324 1.20193082 2.88551158 1.09975479 0 1 C0 0.67 0 0.34 0 0 Z " fill="#235537" transform="translate(158,293)"/>
<path d="M0 0 C10.23 0 20.46 0 31 0 C31 0.33 31 0.66 31 1 C23.38351671 1.62266141 15.85109941 2.12086595 8.20703125 1.9375 C5.8222671 1.89855183 5.8222671 1.89855183 3 3 C3.00523682 4.08007324 3.01047363 5.16014648 3.01586914 6.27294922 C3.03394108 10.27228978 3.04544007 14.27162672 3.05493164 18.27099609 C3.05996682 20.00342414 3.06679532 21.73584792 3.07543945 23.46826172 C3.08754065 25.95541433 3.09323638 28.44251087 3.09765625 30.9296875 C3.10281754 31.70682098 3.10797882 32.48395447 3.11329651 33.28463745 C3.11387171 38.77225659 3.11387171 38.77225659 2 41 C1.88177029 42.54142175 1.82300189 44.08761097 1.79467773 45.63330078 C1.77473251 46.59414581 1.75478729 47.55499084 1.73423767 48.54495239 C1.71752518 49.58457123 1.70081268 50.62419006 1.68359375 51.6953125 C1.6524221 53.28918289 1.6524221 53.28918289 1.62062073 54.91525269 C1.55509739 58.31843438 1.49622727 61.72169489 1.4375 65.125 C1.39431743 67.42839366 1.35070323 69.73177926 1.30664062 72.03515625 C1.19941318 77.69002021 1.09765198 83.34496303 1 89 C0.67 89 0.34 89 0 89 C0 59.63 0 30.26 0 0 Z " fill="#256540" transform="translate(201,207)"/>
<path d="M0 0 C1.35962676 4.07888028 0.97199802 7.68253795 0.75 11.9375 C0.70939453 13.15469727 0.70939453 13.15469727 0.66796875 14.39648438 C0.62800781 15.18216797 0.58804688 15.96785156 0.546875 16.77734375 C0.49805176 17.84843384 0.49805176 17.84843384 0.44824219 18.94116211 C0 21 0 21 -3 25 C-3.495 14.605 -3.495 14.605 -4 4 C-20.83 3.67 -37.66 3.34 -55 3 C-55 2.34 -55 1.68 -55 1 C-27.775 0.505 -27.775 0.505 0 0 Z " fill="#3F9664" transform="translate(399,107)"/>
<path d="M0 0 C3.63 0 7.26 0 11 0 C7 2 7 2 3 2 C1.96131848 18.75356991 1.87551771 35.4756562 1.93133545 52.25567627 C1.941767 55.73619966 1.94617447 59.21673094 1.95117188 62.69726562 C1.96173508 69.46486226 1.97868504 76.23242887 2 83 C2.73968018 82.92273682 3.47936035 82.84547363 4.24145508 82.76586914 C5.22009521 82.66910889 6.19873535 82.57234863 7.20703125 82.47265625 C8.17358643 82.37476807 9.1401416 82.27687988 10.13598633 82.17602539 C13.91300764 81.94388556 17.27697375 82.367788 21 83 C21 83.33 21 83.66 21 84 C10.605 84.495 10.605 84.495 0 85 C-1.56105023 81.87789954 -1.07934892 78.57613793 -1.02172852 75.15380859 C-1.01212097 74.34397018 -1.00251343 73.53413177 -0.99261475 72.69975281 C-0.95956414 70.01589427 -0.91925496 67.33219544 -0.87890625 64.6484375 C-0.85461105 62.79042122 -0.8307672 60.93239899 -0.80735779 59.07437134 C-0.7444571 54.17852002 -0.67540743 49.28277377 -0.60510254 44.38702393 C-0.53447309 39.39348139 -0.4696239 34.39986422 -0.40429688 29.40625 C-0.27520741 19.60408464 -0.13962571 9.80202054 0 0 Z " fill="#1D6239" transform="translate(101,293)"/>
<path d="M0 0 C3.3 0 6.6 0 10 0 C10 0.33 10 0.66 10 1 C8.865625 1.12375 7.73125 1.2475 6.5625 1.375 C4.7990625 1.684375 4.7990625 1.684375 3 2 C1.31927225 5.3614555 1.87123171 9.15987468 1.88647461 12.85595703 C1.88632858 13.77308472 1.88618256 14.6902124 1.8860321 15.63513184 C1.88673052 18.67604919 1.8945196 21.7169058 1.90234375 24.7578125 C1.90420818 26.86245693 1.90563197 28.9671018 1.90663147 31.07174683 C1.91045465 36.61856275 1.92028326 42.1653526 1.93133545 47.7121582 C1.94155384 53.3692998 1.94613001 59.02644559 1.95117188 64.68359375 C1.96190569 75.78907397 1.97897974 86.89453482 2 98 C1.01 98.495 1.01 98.495 0 99 C0 66.33 0 33.66 0 0 Z " fill="#1A6539" transform="translate(302,109)"/>
<path d="M0 0 C0.33 0 0.66 0 1 0 C1 8.91 1 17.82 1 27 C-15.17 27 -31.34 27 -48 27 C-48 26.67 -48 26.34 -48 26 C-42.36056436 25.17247412 -37.03285094 24.91496635 -31.34375 25.12109375 C-30.16214294 25.15651024 -30.16214294 25.15651024 -28.95666504 25.19264221 C-26.47088836 25.26846612 -23.98548957 25.35283319 -21.5 25.4375 C-19.80210107 25.49080236 -18.10418437 25.54354201 -16.40625 25.59570312 C-12.27059964 25.72396931 -8.13526541 25.85989151 -4 26 C-4 25.34 -4 24.68 -4 24 C-3.01 23.67 -2.02 23.34 -1 23 C-0.67 15.41 -0.34 7.82 0 0 Z " fill="#5FB380" transform="translate(197,350)"/>
<path d="M0 0 C0.66 0 1.32 0 2 0 C2.08103404 2.91722548 2.14051081 5.83219516 2.1875 8.75 C2.22520508 9.9875 2.22520508 9.9875 2.26367188 11.25 C2.27333984 12.04921875 2.28300781 12.8484375 2.29296875 13.671875 C2.3086792 14.4050293 2.32438965 15.13818359 2.34057617 15.89355469 C1.90764923 18.57118456 0.74285288 19.96566653 -1 22 C-1.02887814 18.52085059 -1.04675687 15.04173169 -1.0625 11.5625 C-1.07087891 10.56927734 -1.07925781 9.57605469 -1.08789062 8.55273438 C-1.09111328 7.60849609 -1.09433594 6.66425781 -1.09765625 5.69140625 C-1.10289307 4.81685791 -1.10812988 3.94230957 -1.11352539 3.04125977 C-1 1 -1 1 0 0 Z " fill="#388F58" transform="translate(397,110)"/>
</svg>
